<svg width="791" height="737" viewBox="0 0 791 737" fill="none" xmlns="http://www.w3.org/2000/svg">
<path d="M100.12 720.389H386.27C441.13 677.719 476.43 611.079 476.43 536.189C476.43 407.379 372.01 302.959 243.2 302.959C114.39 302.959 9.97022 407.379 9.97022 536.189C9.96022 611.079 45.2602 677.719 100.12 720.389Z" fill="#DBFFD7"/>
<path d="M242.67 724.119H659.55C724.65 666.479 765.69 582.289 765.69 488.499C765.69 314.759 624.85 173.919 451.11 173.919C277.37 173.919 136.53 314.759 136.53 488.499C136.53 582.289 177.57 666.479 242.67 724.119Z" fill="#DBFFD7"/>
<path d="M395.35 736.949C613.696 736.949 790.7 728.555 790.7 718.199C790.7 707.844 613.696 699.449 395.35 699.449C177.004 699.449 0 707.844 0 718.199C0 728.555 177.004 736.949 395.35 736.949Z" fill="#C4ECC0"/>
<path d="M528.66 249.729C528.66 288.819 511.65 323.939 484.64 348.089C471.36 366.189 466.07 391.749 464.1 405.429C463.31 410.929 458.5 415.039 452.88 415.039H340.63C335.01 415.039 330.21 410.929 329.41 405.429C329.14 403.569 328.81 401.499 328.41 399.249C325.86 384.949 320.35 363.729 308.88 348.089C281.86 323.939 264.85 288.819 264.85 249.729C264.85 176.879 323.91 117.829 396.76 117.829C412.29 117.829 427.19 120.509 441.02 125.439C492.09 143.629 528.66 192.399 528.66 249.729Z" fill="#EFA023"/>
<path d="M496.43 232.899C496.43 238.329 496.1 243.679 495.44 248.949C493.18 275.979 477.41 297.259 459.97 316.049C457.76 318.939 455.64 321.879 453.59 324.859C449.48 330.819 445.64 336.949 441.96 343.229C439.75 347.009 437.6 350.819 435.47 354.659C425.4 381.599 398.6 395.789 370.64 397.819C366.86 398.159 363.05 398.369 359.23 398.479C349.18 399.399 338.39 400.109 328.42 399.239C325.87 384.939 320.36 363.719 308.89 348.079C281.87 323.929 264.86 288.809 264.86 249.719C264.86 176.869 323.92 117.819 396.77 117.819C412.3 117.819 427.2 120.499 441.03 125.429C474.56 149.349 496.43 188.569 496.43 232.899Z" fill="#F1B019"/>
<path d="M437.17 266.43C428.63 266.43 421.18 271.14 417.28 278.09L413.33 272.24L401.63 289.58L389.95 272.24L379.13 288.29C378.63 276.14 368.61 266.43 356.35 266.43C343.75 266.43 333.54 276.65 333.54 289.24C333.54 300.26 341.36 309.45 351.76 311.58L364.87 458.9L377.94 457.74L364.82 310.41C370.02 308.33 374.28 304.39 376.77 299.41L378.26 301.62L389.95 284.28L401.64 301.62L413.34 284.28L414.59 286.13C414.45 287.15 414.38 288.19 414.38 289.24C414.38 298.83 420.32 307.05 428.72 310.41L415.6 457.74L428.66 458.9L441.78 311.58C452.18 309.45 459.99 300.26 459.99 289.24C459.97 276.65 449.77 266.43 437.17 266.43ZM356.35 303.11C348.69 303.11 342.48 296.91 342.48 289.24C342.48 281.58 348.69 275.37 356.35 275.37C359.9 275.37 363.14 276.71 365.6 278.91C368.43 281.45 370.21 285.14 370.21 289.24C370.21 289.38 370.21 289.52 370.2 289.67C369.98 297.13 363.86 303.11 356.35 303.11ZM437.17 303.11C431.84 303.11 427.21 300.11 424.89 295.69C423.88 293.77 423.31 291.57 423.31 289.24C423.31 288.56 423.36 287.89 423.45 287.24C424.42 280.52 430.2 275.37 437.17 275.37C444.83 275.37 451.04 281.58 451.04 289.24C451.04 296.9 444.83 303.11 437.17 303.11Z" fill="white"/>
<path d="M457.45 474.539C458.07 474.859 458.65 475.259 459.18 475.709C459.98 476.379 460.69 477.179 461.24 478.069C462.16 479.559 462.7 481.309 462.7 483.179C462.7 488.519 458.33 492.909 452.98 492.909H340.53C337.85 492.909 335.42 491.809 333.66 490.049C331.9 488.279 330.81 485.859 330.81 483.179C330.81 480.179 332.18 477.499 334.33 475.719C334.87 475.269 335.44 474.879 336.06 474.549C336.94 474.089 336.94 472.819 336.06 472.359C335.28 471.949 334.56 471.449 333.92 470.849C332 469.069 330.81 466.529 330.81 463.719C330.81 460.799 332.11 458.179 334.16 456.399C334.74 455.899 335.37 455.449 336.06 455.099C336.94 454.639 336.94 453.369 336.06 452.909C335.34 452.539 334.68 452.069 334.09 451.539C333.38 450.919 332.77 450.189 332.27 449.389C331.35 447.899 330.81 446.149 330.81 444.279C330.81 441.359 332.11 438.739 334.16 436.959C334.74 436.449 335.37 436.009 336.06 435.649C336.96 435.179 336.91 433.909 336.01 433.439C335.32 433.079 334.68 432.639 334.1 432.109C331.86 430.139 330.53 427.139 330.85 423.869C331.35 418.839 335.78 415.109 340.83 415.109H452.68C457.73 415.109 462.17 418.839 462.66 423.869C462.98 427.129 461.66 430.129 459.42 432.109C458.84 432.629 458.2 433.079 457.5 433.439C456.6 433.909 456.55 435.189 457.45 435.649C458.14 435.999 458.77 436.449 459.35 436.959C460.08 437.599 460.73 438.349 461.24 439.179C462.16 440.669 462.7 442.419 462.7 444.289C462.7 447.169 461.43 449.769 459.42 451.549C458.82 452.089 458.16 452.549 457.45 452.919C456.57 453.379 456.57 454.649 457.45 455.109C458.14 455.459 458.77 455.909 459.35 456.409C461.4 458.189 462.7 460.819 462.7 463.729C462.7 466.539 461.5 469.069 459.59 470.859C458.94 471.449 458.23 471.959 457.45 472.369C456.57 472.799 456.57 474.079 457.45 474.539Z" fill="white"/>
<path d="M338.29 492.889L388.17 514.809C393.64 517.209 399.86 517.209 405.33 514.809L455.21 492.889H338.29Z" fill="#A8D7A3"/>
<path d="M457.45 435.639C458.14 435.989 458.77 436.439 459.35 436.949H334.15C334.73 436.439 335.36 435.999 336.05 435.639C336.95 435.169 336.9 433.899 336 433.429C335.31 433.069 334.67 432.629 334.09 432.099H459.41C458.83 432.619 458.19 433.069 457.49 433.429C456.6 433.899 456.55 435.169 457.45 435.639Z" fill="#C4ECC0"/>
<path d="M457.45 455.089C458.14 455.439 458.77 455.889 459.35 456.389H334.15C334.73 455.889 335.36 455.439 336.05 455.089C336.93 454.629 336.93 453.359 336.05 452.899C335.33 452.529 334.67 452.059 334.08 451.529H459.42C458.82 452.069 458.16 452.529 457.45 452.899C456.57 453.359 456.57 454.639 457.45 455.089Z" fill="#C4ECC0"/>
<path d="M457.45 474.539C458.07 474.859 458.65 475.259 459.18 475.709H334.32C334.86 475.259 335.43 474.869 336.05 474.539C336.93 474.079 336.93 472.809 336.05 472.349C335.27 471.939 334.55 471.439 333.91 470.839H459.58C458.93 471.429 458.22 471.939 457.44 472.349C456.57 472.799 456.57 474.079 457.45 474.539Z" fill="#C4ECC0"/>
<path opacity="0.2" d="M420.93 472.309C421.71 471.899 422.42 471.399 423.07 470.799C424.99 469.019 426.18 466.479 426.18 463.669C426.18 460.749 424.88 458.129 422.83 456.349C422.25 455.849 421.62 455.399 420.93 455.049C420.05 454.589 420.05 453.319 420.93 452.859C421.64 452.489 422.3 452.019 422.9 451.489C424.91 449.709 426.18 447.109 426.18 444.229C426.18 442.359 425.64 440.609 424.72 439.119C424.21 438.289 423.56 437.539 422.83 436.899C422.25 436.389 421.62 435.949 420.93 435.589C420.03 435.119 420.08 433.849 420.98 433.369C421.67 433.009 422.32 432.559 422.9 432.039C425.14 430.059 426.46 427.069 426.14 423.799C425.65 418.769 421.21 415.039 416.16 415.039H374.56C369.51 415.039 365.08 418.769 364.58 423.799C364.26 427.069 365.59 430.069 367.83 432.039C368.41 432.569 369.05 433.009 369.74 433.369C370.64 433.839 370.69 435.119 369.79 435.589C369.1 435.939 368.47 436.389 367.89 436.899C365.84 438.679 364.54 441.309 364.54 444.219C364.54 446.089 365.08 447.839 366 449.329C366.5 450.129 367.11 450.859 367.82 451.479C368.41 452.019 369.07 452.479 369.79 452.849C370.67 453.309 370.67 454.579 369.79 455.039C369.1 455.389 368.47 455.839 367.89 456.339C365.84 458.119 364.54 460.749 364.54 463.659C364.54 466.469 365.74 468.999 367.65 470.789C368.29 471.379 369.01 471.889 369.79 472.299C370.67 472.759 370.67 474.029 369.79 474.489C369.17 474.809 368.59 475.209 368.06 475.659C365.92 477.439 364.54 480.129 364.54 483.119C364.54 485.789 365.64 488.219 367.39 489.989C369.16 491.759 371.58 492.849 374.26 492.849H416.46C421.8 492.849 426.18 488.469 426.18 483.119C426.18 481.249 425.64 479.499 424.72 478.009C424.17 477.119 423.47 476.319 422.66 475.649C422.12 475.199 421.55 474.809 420.93 474.479C420.05 474.049 420.05 472.769 420.93 472.309Z" fill="#14595E"/>
<path d="M377.234 237.064C402.788 208.326 407.687 170.966 388.178 153.618C368.669 136.271 332.138 145.504 306.584 174.242C281.03 202.98 276.13 240.34 295.64 257.687C315.149 275.035 351.68 265.802 377.234 237.064Z" fill="#FCE27F"/>
<path d="M313.33 191.079C312.19 191.079 311.03 190.699 310.08 189.909C307.89 188.109 307.58 184.879 309.37 182.699C310.19 181.699 311.05 180.699 311.9 179.729C321.53 168.899 333.44 160.469 345.44 155.979C348.09 154.989 351.04 156.329 352.03 158.989C353.02 161.639 351.68 164.589 349.02 165.579C338.55 169.489 328.08 176.939 319.55 186.539C318.78 187.409 318.01 188.299 317.27 189.199C316.28 190.439 314.81 191.079 313.33 191.079Z" fill="white"/>
<path d="M299.05 215.979C298.49 215.979 297.92 215.889 297.36 215.689C294.69 214.759 293.28 211.829 294.21 209.159C295.41 205.719 296.91 202.249 298.66 198.859C299.96 196.349 303.05 195.359 305.56 196.659C308.07 197.959 309.06 201.049 307.76 203.559C306.23 206.519 304.92 209.539 303.88 212.529C303.15 214.659 301.17 215.979 299.05 215.979Z" fill="white"/>
<path d="M519.18 436.529L534.66 435.269C534.66 435.269 536.73 396.559 538.97 385.369C541.21 374.189 537.3 382.779 536.66 386.449C536.66 386.449 536.61 386.919 536.35 386.869C536.09 386.829 537.99 373.469 536.87 373.459C535.75 373.459 534.94 380.509 534.89 381.499C534.89 381.499 534.83 382.099 534.5 382.059C534.16 382.029 534.22 381.489 533.38 381.619C532.54 381.749 532.69 382.599 532.69 382.599C532.69 382.599 531.79 381.869 531.25 382.459C530.73 383.009 530.98 383.519 531.02 383.589C530.94 383.539 530.02 382.999 529.68 383.539C529.34 384.069 530.84 390.789 530.98 392.479C530.99 392.609 530.99 392.719 530.98 392.779C530.93 393.229 527.87 401.719 524.89 411.319C521.91 420.919 519 431.609 519.18 436.529Z" fill="#F3BA9F"/>
<path d="M613.37 504.939C613.37 504.939 614.28 506.369 615.75 508.709L615.76 508.729C618.16 512.539 622.05 518.729 625.91 524.929C631.53 533.969 637.07 543.019 637.83 544.789C639.42 548.489 642.01 548.079 645.69 553.739C649.37 559.399 649.77 552.599 649.82 553.959C649.88 555.329 651.17 559.309 652.14 559.239C653.12 559.169 652.7 555.069 652.67 551.469C652.63 547.869 643.41 543.779 643.41 543.779L631.9 506.489L630.81 502.959L629.99 500.279L613.37 504.939Z" fill="#F3BA9F"/>
<path d="M571.49 552.679C575.93 557.309 582.09 575.159 588.27 596.599C600.06 637.539 611.92 691.549 611.92 691.549L627.98 691.619C628.71 659.209 615.11 566.299 615.11 566.299L614.38 546.179L613.81 530.669C603.17 494.709 576.85 503.929 576.85 503.929C576.85 503.929 558.58 539.189 571.49 552.679Z" fill="#14595E"/>
<path d="M571.489 552.679C575.929 557.309 582.089 575.159 588.269 596.599L594.889 547.819C605.539 548.679 611.289 547.529 614.369 546.189L613.799 530.679C603.159 494.719 576.839 503.939 576.839 503.939C576.839 503.939 558.579 539.189 571.489 552.679Z" fill="#14595E"/>
<path d="M529.38 691.189L544.95 691.259L571.27 601.049L590.14 532.029L590.21 516.699L555.19 512.599L551.17 525.379L550.55 527.369C550.55 527.369 549.9 530.849 548.89 536.239C546.72 547.899 542.91 568.499 540.52 581.979H540.51C540.23 583.579 539.96 585.079 539.73 586.459C538.89 591.239 538.37 594.489 538.37 595.059C538.36 597.789 529.38 691.189 529.38 691.189Z" fill="#0A7E64"/>
<path d="M550.72 680.039L528.24 678.699L524.1 706.199C524.1 706.199 513.86 710.389 513.55 714.469C513.55 714.469 538.94 717.209 540.56 714.589C542.18 711.969 550.72 680.039 550.72 680.039Z" fill="white"/>
<path d="M630.46 678.699L607.24 678.599L610.23 708.489C610.23 708.489 604.51 714.159 604.06 716.049C604.06 716.049 627.56 716.739 629.32 714.559C631.09 712.369 630.46 678.699 630.46 678.699Z" fill="white"/>
<path d="M578.65 415.069C577.61 415.069 576.64 414.509 575.93 413.509C575.25 412.549 574.87 411.289 574.88 409.949C574.89 408.609 575.27 407.349 575.96 406.399C576.68 405.399 577.65 404.859 578.7 404.859C579.74 404.859 580.71 405.419 581.42 406.419C582.1 407.379 582.48 408.639 582.47 409.979C582.46 411.319 582.08 412.579 581.39 413.529C580.67 414.519 579.7 415.069 578.67 415.069C578.66 415.069 578.66 415.069 578.65 415.069ZM576.67 406.909C576.09 407.719 575.76 408.799 575.76 409.949C575.75 411.109 576.07 412.189 576.65 412.999C577.2 413.769 577.91 414.189 578.66 414.189H578.67C579.42 414.189 580.13 413.769 580.68 413.009C581.26 412.199 581.59 411.119 581.59 409.969C581.6 408.809 581.28 407.729 580.7 406.919C580.15 406.149 579.44 405.729 578.69 405.729H578.68C577.94 405.729 577.22 406.149 576.67 406.909Z" fill="#1F3A6F"/>
<path d="M578.8 440.229L602.01 440.699L594.89 428.499L592.73 424.809L584.4 427.039C584.4 427.039 584.44 430.499 583.27 434.019C582.47 436.419 581.11 438.849 578.8 440.229Z" fill="#F3BA9F"/>
<path d="M583.27 434.019C585.79 433.279 590.83 431.549 594.89 428.499L592.729 424.809L584.4 427.039C584.4 427.039 584.44 430.499 583.27 434.019Z" fill="#EFA37D"/>
<path d="M589.28 397.129C589.28 397.129 578.84 402.869 577.24 411.479C577.24 411.479 577.04 413.179 578.59 413.869C578.59 413.869 572.19 430.699 588.41 427.639C604.64 424.569 609.72 397.219 589.28 397.129Z" fill="#F3BA9F"/>
<path d="M549 535.86C555.37 539.58 566.86 543.74 583.33 539.93L585 531.62L551.29 525L550.67 526.99C550.66 526.99 550.01 530.47 549 535.86Z" fill="#14595E"/>
<path d="M518.58 443.009C518.64 446.719 519.5 451.039 522.79 453.099C523.49 453.539 524.3 453.879 525.24 454.089C534.72 456.179 557.47 462.119 557.47 462.559C557.47 462.999 554.37 470.719 557.84 477.009C559.43 479.889 558.3 488.709 556.24 498.109C556.07 498.909 555.88 499.709 555.7 500.509C555.48 501.439 555.26 502.379 555.03 503.299C554.94 503.659 554.85 504.019 554.76 504.379C552.47 513.459 549.68 521.949 548.03 525.039C544.42 531.809 570.67 546.909 594.1 540.919C595.42 540.579 596.23 539.249 595.96 537.909L592.43 520.469L602.5 537.709C603.58 539.549 605.55 540.699 607.68 540.719C610 540.739 613.04 540.489 615.55 539.359C617.78 538.349 619.59 536.659 620.1 533.829C621.56 525.769 603.45 499.159 601.34 492.309C601.34 492.299 601.34 492.299 601.34 492.299C601.14 491.639 601.08 491.169 601.21 490.909C602.75 487.819 607.17 487.739 607.17 487.739L612.73 502.089L629.42 497.209L627.64 488.659L627.57 488.289L625.98 477.639L625.95 476.729L625.33 453.659C625.33 453.659 610.74 432.989 589.83 438.239C589.83 438.239 549.67 437.409 536.96 440.419L536.84 439.599L536.11 434.719L519.17 436.539C519.18 436.529 518.52 439.499 518.58 443.009Z" fill="#3E80B4"/>
<path d="M631.63 493.919L609.21 501.949L613.41 509.609L631.3 502.769L631.63 493.919Z" fill="white"/>
<path d="M575.66 410.539C575.69 410.539 575.71 410.539 575.74 410.529L590.14 408.519C590.46 408.479 590.68 408.179 590.64 407.859C590.6 407.539 590.3 407.319 589.98 407.359L575.58 409.369C575.26 409.409 575.04 409.709 575.08 410.029C575.13 410.319 575.38 410.539 575.66 410.539Z" fill="#1F3A6F"/>
<path d="M605.46 468.879C605.52 469.239 608.48 484.049 627.64 488.649L627.57 488.279L625.98 477.629L625.95 476.719C615.9 472.559 605.8 468.999 605.46 468.879Z" fill="#1C71A9"/>
<path d="M586.27 409.499C585.56 408.189 585 406.819 584.62 405.379C583.23 400.149 581.81 388.399 598.5 391.329C619.8 395.069 620.9 408.949 619.4 419.449C617.89 429.949 663.64 450.159 646.48 468.769C629.32 487.379 610.07 481.459 604.14 470.329C598.2 459.209 604.51 453.829 599.26 451.179C594.02 448.529 584.16 432.429 589.32 422.229C589.32 422.229 596.02 409.049 591.28 408.659C587.03 408.329 588.34 413.309 586.27 409.499Z" fill="#14595E"/>
<path d="M556.24 498.099C561.88 485.179 568.41 464.559 568.41 464.559C564.39 464.399 557.46 462.539 557.46 462.539C557.46 462.979 554.36 470.699 557.83 476.989C559.43 479.879 558.29 488.699 556.24 498.099Z" fill="#1C71A9"/>
<path d="M518.58 443.009C518.64 446.719 519.5 451.039 522.79 453.099L536.98 440.419L536.86 439.599L518.58 443.009Z" fill="#1C71A9"/>
<path d="M538.49 439.099L516.85 445.569L517.28 435.649L538.76 431.509L538.49 439.099Z" fill="white"/>
<path d="M615.75 508.709L615.76 508.729C618.16 512.539 622.05 518.729 625.91 524.929L631.9 506.489L630.81 502.959L615.75 508.709Z" fill="#EFA37D"/>
<path d="M601.35 492.309C602.04 499.029 605.6 527.679 615.56 539.349C617.79 538.339 619.6 536.649 620.11 533.819C621.57 525.759 603.46 499.149 601.35 492.309Z" fill="#1C71A9"/>
<path d="M174.89 400.15C174.89 400.15 183.79 399.15 177.99 387.79C172.19 376.43 145.9 388.08 142.17 398.21C138.44 408.33 143.27 417.7 146.51 420.63C149.75 423.57 151.83 425.91 154.98 422.39C158.12 418.88 174.89 400.15 174.89 400.15Z" fill="#14595E"/>
<path d="M202.48 707.57L188.64 708.16L186.9 699.04L185.32 690.72H199.16L200.13 695.64L202.48 707.57Z" fill="white"/>
<path d="M200.13 695.64L186.9 699.04L185.32 690.72H199.16L200.13 695.64Z" fill="#BACAE2"/>
<path d="M150.67 691.48L150.35 697.92L149.96 705.51C149.96 705.51 134.89 706.6 134.89 706.22V690.13L149.11 690.85L150.67 691.48Z" fill="white"/>
<path d="M150.67 691.48L150.35 697.92L134.89 700.42V690.13L149.12 690.85L150.67 691.48Z" fill="#BACAE2"/>
<path d="M263.75 454.569C263.58 457.34 248.19 456.95 244.71 460.79C241.23 464.63 208.08 508.289 198.93 505.429C196.43 504.649 193.9 503.01 191.52 500.76C185.18 494.78 179.88 484.5 179 474.73L201.15 467.23L204.21 475.329L206.51 481.429L234.85 454.499C234.85 454.499 237.05 442.619 244.3 443.109C251.55 443.599 240.54 446.409 243.7 448.939C246.88 451.459 263.92 451.799 263.75 454.569Z" fill="#FDC8AA"/>
<path d="M204.21 475.339L195.04 485.319L191.52 500.769C185.18 494.789 179.88 484.509 179 474.739L201.15 467.239L204.21 475.339Z" fill="#EFA37D"/>
<path d="M201.15 693.3C201.15 693.3 186.93 696.14 184.94 694.15C184.24 693.45 181.31 682.21 177.8 667.9C171.36 641.69 162.97 605.18 162.77 604.3L162.76 604.28L152.52 696.42C152.52 696.42 132.9 697.84 132.9 696.42V553.65C132.9 538.27 132.9 528.07 132.9 528.07L187.5 526.08L187.87 530.62L201.15 693.3Z" fill="#0A7E64"/>
<path d="M177.8 667.909C171.36 641.699 162.97 605.189 162.77 604.309L162.76 604.289L167.03 564.189L177.8 667.909Z" fill="#14595E"/>
<path d="M147.26 536.92L148.11 547.42L142.28 557.37L132.9 553.66C132.9 538.28 132.9 528.08 132.9 528.08L187.5 526.09L187.87 530.63L147.26 536.92Z" fill="#14595E"/>
<path d="M168.49 437.119C168.49 437.119 198.4 437.999 204.47 472.119L188.12 479.729L168.49 437.119Z" fill="#EFA023"/>
<path d="M189.3 529.12C186.51 530.18 159.27 532.74 142.09 532.08C139.93 531.99 137.94 531.86 136.17 531.67C131.92 531.2 128.97 530.4 128.25 529.12C127.12 527.12 126.95 520.46 127.39 512.05C127.73 505.51 128.44 497.9 129.36 490.61C130.83 478.85 132.85 467.89 134.72 463.4L153.03 438.03L169.43 436.31C169.43 436.31 187.96 440.4 190.24 465.43C192.52 490.44 193.29 527.6 189.3 529.12Z" fill="#F1B019"/>
<path d="M169.87 459.06C169.87 459.9 169.19 460.58 168.35 460.58C167.51 460.58 166.83 459.9 166.83 459.06C166.83 458.22 167.51 457.54 168.35 457.54C169.19 457.55 169.87 458.23 169.87 459.06Z" fill="white"/>
<path d="M171.39 473.19C171.39 474.03 170.71 474.71 169.87 474.71C169.03 474.71 168.35 474.03 168.35 473.19C168.35 472.35 169.03 471.67 169.87 471.67C170.71 471.67 171.39 472.35 171.39 473.19Z" fill="white"/>
<path d="M172.48 489.209C172.48 490.049 171.8 490.729 170.96 490.729C170.12 490.729 169.44 490.049 169.44 489.209C169.44 488.369 170.12 487.689 170.96 487.689C171.8 487.689 172.48 488.369 172.48 489.209Z" fill="white"/>
<path d="M171.39 510.16C171.39 511 170.71 511.68 169.87 511.68C169.03 511.68 168.35 511 168.35 510.16C168.35 509.32 169.03 508.64 169.87 508.64C170.71 508.64 171.39 509.32 171.39 510.16Z" fill="white"/>
<path d="M140.51 489.57C140.15 489.57 138.02 505.91 138.02 505.91L142.09 532.08L142.43 534.22H137.31L136.17 531.67L127.39 512.05C127.73 505.51 128.44 497.9 129.36 490.61L135.45 470.82L149.17 464.76L147.04 488.5C147.05 488.5 140.86 489.57 140.51 489.57Z" fill="#EFA023"/>
<path d="M148.11 547.41L142.28 557.36C142.28 557.36 111 514.42 110.71 510.15C110.51 507.05 114.95 491.51 117.39 483.23C118.31 480.11 118.95 478.01 118.95 478.01L138.15 482.13L134.49 495.22L132.03 504.03L148.11 547.41Z" fill="#FDC8AA"/>
<path d="M138.16 482.15L134.5 495.24L117.4 483.24C118.32 480.12 118.96 478.02 118.96 478.02L138.16 482.15Z" fill="#EFA37D"/>
<path d="M153.04 438.02C153.04 438.02 123.51 444.18 116.4 478.88C116.4 478.88 122.66 483.57 143.42 484.85L149.39 463.81" fill="#F1B019"/>
<path d="M226.91 717.95C226.1 713.02 221.51 711.81 212.89 709.93C207.09 708.67 204.15 704.72 202.84 702.26L186.69 704.7L186.08 717.09C185.92 718.6 187.04 719.93 188.56 720.02C197.9 720.61 227.59 722.1 226.91 717.95Z" fill="#14595E"/>
<path d="M204.83 709.4C204.68 709.4 204.53 709.32 204.44 709.18C204.31 708.97 204.38 708.69 204.6 708.56C208.77 706.08 210.3 703.85 209.94 702.81C209.7 702.12 208.69 701.69 207.95 701.76C206.45 701.91 204.9 704.16 204.91 707.65C204.91 707.9 204.71 708.1 204.46 708.1C204.21 708.1 204.01 707.9 204.01 707.65C204 703.49 205.99 701.05 207.86 700.86C208.96 700.75 210.41 701.39 210.79 702.52C211.39 704.3 209.25 706.84 205.05 709.33C204.99 709.37 204.91 709.4 204.83 709.4Z" fill="white"/>
<path d="M208.87 711.97C208.77 711.97 208.66 711.94 208.58 711.86C208.39 711.7 208.37 711.41 208.53 711.22L210.71 708.65C210.87 708.46 211.15 708.44 211.35 708.6C211.54 708.76 211.56 709.05 211.4 709.24L209.22 711.81C209.13 711.92 209 711.97 208.87 711.97Z" fill="white"/>
<path d="M213.19 713.04C213.09 713.04 212.98 713.01 212.9 712.93C212.71 712.77 212.69 712.48 212.85 712.29L215.03 709.72C215.19 709.53 215.47 709.51 215.67 709.67C215.86 709.83 215.88 710.12 215.72 710.31L213.54 712.88C213.44 712.98 213.32 713.04 213.19 713.04Z" fill="white"/>
<path d="M218.35 714.61C218.3 714.61 218.24 714.6 218.19 714.58C217.96 714.49 217.84 714.23 217.93 714L219.14 710.86C219.23 710.63 219.49 710.51 219.72 710.6C219.95 710.69 220.07 710.95 219.98 711.18L218.77 714.32C218.7 714.5 218.53 714.61 218.35 714.61Z" fill="white"/>
<path d="M173.74 717.95C172.93 713.02 168.34 711.81 159.72 709.93C153.92 708.67 151.98 704.72 150.68 702.26L134.28 704.53L132.92 717.1C132.76 718.61 133.88 719.94 135.4 720.03C144.73 720.61 174.42 722.1 173.74 717.95Z" fill="#14595E"/>
<path d="M151.67 709.4C151.52 709.4 151.37 709.32 151.28 709.18C151.15 708.97 151.22 708.69 151.44 708.56C155.61 706.08 157.14 703.85 156.78 702.81C156.54 702.12 155.53 701.69 154.79 701.76C153.29 701.91 151.74 704.16 151.75 707.65C151.75 707.9 151.55 708.1 151.3 708.1C151.05 708.1 150.85 707.9 150.85 707.65C150.84 703.49 152.83 701.05 154.7 700.86C155.8 700.75 157.25 701.39 157.64 702.52C158.24 704.3 156.1 706.84 151.9 709.33C151.82 709.37 151.74 709.4 151.67 709.4Z" fill="white"/>
<path d="M155.71 711.97C155.61 711.97 155.5 711.94 155.42 711.86C155.23 711.7 155.21 711.41 155.37 711.22L157.55 708.65C157.71 708.46 157.99 708.44 158.19 708.6C158.38 708.76 158.4 709.05 158.24 709.24L156.06 711.81C155.96 711.92 155.84 711.97 155.71 711.97Z" fill="white"/>
<path d="M160.02 713.04C159.92 713.04 159.81 713.01 159.73 712.93C159.54 712.77 159.52 712.48 159.68 712.29L161.86 709.72C162.02 709.53 162.3 709.51 162.5 709.67C162.69 709.83 162.71 710.12 162.55 710.31L160.37 712.88C160.28 712.98 160.15 713.04 160.02 713.04Z" fill="white"/>
<path d="M165.18 714.61C165.13 714.61 165.07 714.6 165.02 714.58C164.79 714.49 164.67 714.23 164.76 714L165.97 710.86C166.06 710.63 166.32 710.51 166.55 710.6C166.78 710.69 166.9 710.95 166.81 711.18L165.6 714.32C165.53 714.5 165.36 714.61 165.18 714.61Z" fill="white"/>
<path d="M174.01 440.859L165.39 449.579L150.72 441.659C150.72 441.659 153.12 438.639 153.73 432.029C153.94 429.849 153.95 427.289 153.62 424.319L168.68 431.649C168.68 431.649 168.56 432.589 168.92 433.999C169.38 435.829 170.65 438.439 174.01 440.859Z" fill="#FDC8AA"/>
<path d="M170.33 434.399L178.94 443.469L171.2 443.799L165.39 449.579L170.33 434.399Z" fill="white"/>
<path d="M150.64 436.55L147.01 447.53L154.98 445.18L165.39 449.58L150.64 436.55Z" fill="white"/>
<path d="M168.91 433.999C163.79 435.419 157.41 433.479 153.72 432.029C153.93 429.849 153.94 427.289 153.61 424.319L168.67 431.649C168.67 431.649 168.55 432.589 168.91 433.999Z" fill="#EFA37D"/>
<path d="M175.98 399.339C175.98 399.339 185.77 433.399 169.75 432.879C153.74 432.359 152.29 422.019 152.29 422.019C152.29 422.019 146.91 418.549 147.97 412.379C149.03 406.209 155.6 412.479 155.6 412.479C155.6 412.479 148.44 398.679 175.98 399.339Z" fill="#FDC8AA"/>
<path d="M154.31 413.459C154.31 413.459 152.04 411.399 150.78 412.709C149.51 414.019 151.37 418.919 152.4 419.379C153.43 419.839 151.7 415.569 151.92 415.089C152.13 414.609 152.54 412.939 154.31 413.459Z" fill="#EFA37D"/>
<path d="M728.157 317.913C756.591 289.479 756.591 243.379 728.157 214.945C699.723 186.511 653.623 186.511 625.189 214.945C596.755 243.379 596.755 289.479 625.189 317.913C653.623 346.346 699.723 346.346 728.157 317.913Z" fill="#C4ECC0"/>
<path d="M84.2616 575.718C86.3037 567.07 80.9484 558.403 72.3003 556.361C63.6522 554.319 54.9861 559.675 52.9441 568.323C50.902 576.971 56.2572 585.637 64.9053 587.679C73.5534 589.721 82.2196 584.366 84.2616 575.718Z" fill="#C4ECC0"/>
<path d="M664.858 385.941C666.389 379.453 662.372 372.952 655.885 371.42C649.397 369.888 642.896 373.906 641.364 380.393C639.833 386.881 643.85 393.381 650.337 394.913C656.825 396.445 663.326 392.428 664.858 385.941Z" fill="#C4ECC0"/>
<path d="M378.43 314.27L371.5 359.43H322.22L328.95 315.52L320.77 314.26L258.9 717.71L267.08 718.97L272.57 683.2H321.85L316.56 717.71L324.74 718.97L386.61 315.53L378.43 314.27ZM370.51 365.89L362.47 418.32H313.19L321.23 365.89H370.51ZM293.94 543.81L302.64 487.11H351.92L343.22 543.81H293.94ZM342.24 550.27L333.1 609.88H283.82L292.96 550.27H342.24ZM303.63 480.65L312.2 424.78H361.48L352.91 480.65H303.63ZM273.56 676.73L282.82 616.33H332.1L322.84 676.73H273.56Z" fill="#14595E"/>
<path d="M606.64 138.45L617.1 161.11L547.47 184.91L543.35 178.35L606.64 138.45Z" fill="#F1B019"/>
<path d="M458.85 0L482.39 8.29L450.91 74.8L443.33 73.18L458.85 0Z" fill="#F1B019"/>
<path d="M238 64.0396L257.36 48.3096L297.63 109.89L292.29 115.51L238 64.0396Z" fill="#F1B019"/>
</svg>
