<?xml version="1.0" encoding="utf-8"?>
<!-- Generator: Adobe Illustrator 24.2.1, SVG Export Plug-In . SVG Version: 6.00 Build 0)  -->
<svg version="1.1" id="Layer_1" xmlns="http://www.w3.org/2000/svg" xmlns:xlink="http://www.w3.org/1999/xlink" x="0px" y="0px"
	 viewBox="0 0 1920 1080" style="enable-background:new 0 0 1920 1080;" xml:space="preserve">
<style type="text/css">
	.st0{display:none;fill:#E1ECEF;}
	.st1{fill:#FAF06C;}
	.st2{fill:none;stroke:#55915E;stroke-miterlimit:10;}
	.st3{fill:url(#);}
	.st4{fill:#FFD15E;}
	.st5{fill:#54915E;}
	.st6{fill:none;stroke:#55915E;stroke-width:4;stroke-miterlimit:10;}
	.st7{opacity:0;}
	.st8{opacity:5.263158e-02;}
	.st9{opacity:0.1053;}
	.st10{opacity:0.1579;}
	.st11{opacity:0.2105;}
	.st12{opacity:0.2632;}
	.st13{opacity:0.3158;}
	.st14{opacity:0.3684;}
	.st15{opacity:0.4211;}
	.st16{opacity:0.4737;}
	.st17{opacity:0.5263;}
	.st18{opacity:0.5789;}
	.st19{opacity:0.6316;}
	.st20{opacity:0.6842;}
	.st21{opacity:0.7368;}
	.st22{opacity:0.7895;}
	.st23{opacity:0.8421;}
	.st24{opacity:0.8947;}
	.st25{opacity:0.9474;}
	.st26{opacity:0.5;clip-path:url(#SVGID_2_);}
	.st27{fill:none;stroke:#54915E;stroke-width:3;stroke-miterlimit:10;}
	.st28{fill:none;stroke:#54915E;stroke-width:2;stroke-miterlimit:10;}
	.st29{opacity:0.6;fill:#54915E;}
	.st30{opacity:0.2;}
</style>
<rect x="-41" y="-14.9" class="st0" width="1982" height="1119"/>
<g>
	<defs>
		<rect id="SVGID_1_" x="-41.5" y="-0.3" width="2004" height="1105"/>
	</defs>
	<clipPath id="SVGID_2_">
		<use xlink:href="#SVGID_1_"  style="overflow:visible;"/>
	</clipPath>
	<g class="st26">
		<g>
			<path class="st27" d="M1293.2,358.5H1628v334.8c0,27.2,22,49.2,49.2,49.2h12.7c27.2,0,49.2-22,49.2-49.2V358.5H2074
				c27.2,0,49.2-22,49.2-49.2v-12.7c0-27.2-22-49.2-49.2-49.2h-334.8V-87.5c0-27.2-22-49.2-49.2-49.2h-12.7
				c-27.2,0-49.2,22-49.2,49.2v334.8h-334.8c-27.2,0-49.2,22-49.2,49.2v12.7C1243.9,336.5,1266,358.5,1293.2,358.5z"/>
			<path class="st28" d="M1197.3,1040.9h215v215c0,17.5,14.2,31.6,31.6,31.6h8.2c17.5,0,31.6-14.2,31.6-31.6v-215h215
				c17.5,0,31.6-14.2,31.6-31.6v-8.2c0-17.5-14.2-31.6-31.6-31.6h-215v-215c0-17.5-14.2-31.6-31.6-31.6h-8.2
				c-17.5,0-31.6,14.2-31.6,31.6v215h-215c-17.5,0-31.6,14.2-31.6,31.6v8.2C1165.7,1026.7,1179.9,1040.9,1197.3,1040.9z"/>
		</g>
		<g>
			<path class="st27" d="M626.8,792.2H292V457.4c0-27.2-22-49.2-49.2-49.2H230c-27.2,0-49.2,22-49.2,49.2v334.8H-154
				c-27.2,0-49.2,22-49.2,49.2v12.7c0,27.2,22,49.2,49.2,49.2h334.8v334.8c0,27.2,22,49.2,49.2,49.2h12.7c27.2,0,49.2-22,49.2-49.2
				V903.4h334.8c27.2,0,49.2-22,49.2-49.2v-12.7C676.1,814.3,654,792.2,626.8,792.2z"/>
			<path class="st28" d="M722.7,109.9h-215v-215c0-17.5-14.2-31.6-31.6-31.6h-8.2c-17.5,0-31.6,14.2-31.6,31.6v215h-215
				c-17.5,0-31.6,14.2-31.6,31.6v8.2c0,17.5,14.2,31.6,31.6,31.6h215v215c0,17.5,14.2,31.6,31.6,31.6h8.2
				c17.5,0,31.6-14.2,31.6-31.6v-215h215c17.5,0,31.6-14.2,31.6-31.6v-8.2C754.3,124,740.1,109.9,722.7,109.9z"/>
		</g>
	</g>
</g>
</svg>
