<?xml version="1.0" encoding="utf-8"?>
<!-- Generator: Adobe Illustrator 26.0.2, SVG Export Plug-In . SVG Version: 6.00 Build 0)  -->
<svg version="1.1" id="Layer_1" xmlns="http://www.w3.org/2000/svg" xmlns:xlink="http://www.w3.org/1999/xlink" x="0px" y="0px"
	 viewBox="0 0 4511 2256.9" style="enable-background:new 0 0 4511 2256.9;" xml:space="preserve">
<style type="text/css">
	.st0{display:none;fill:#E1ECEF;}
	.st1{opacity:0.5;clip-path:url(#SVGID_00000083777104234789521190000009659655173447943591_);}
	.st2{fill:none;stroke:#54915E;stroke-width:2;stroke-miterlimit:10;}
	.st3{fill:none;stroke:#54915E;stroke-width:3;stroke-miterlimit:10;}
	.st4{opacity:0.1;}
	.st5{fill:#54915E;}
</style>
<rect x="1254.5" y="-34" class="st0" width="1982" height="1119"/>
<g>
	<g>
		<g>
			<g>
				<defs>
					<rect id="SVGID_1_" x="1254" y="-1151.5" width="2004" height="1105"/>
				</defs>
				<clipPath id="SVGID_00000125587069640901550450000001813585840729987775_">
					<use xlink:href="#SVGID_1_"  style="overflow:visible;"/>
				</clipPath>
				<g style="opacity:0.5;clip-path:url(#SVGID_00000125587069640901550450000001813585840729987775_);">
					<g>
						<path class="st2" d="M2492.8-110.3h215v215c0,17.5,14.2,31.6,31.6,31.6h8.2c17.5,0,31.6-14.2,31.6-31.6v-215h215
							c17.5,0,31.6-14.2,31.6-31.6v-8.2c0-17.5-14.2-31.6-31.6-31.6h-215v-215c0-17.5-14.2-31.6-31.6-31.6h-8.2
							c-17.5,0-31.6,14.2-31.6,31.6v215h-215c-17.5,0-31.6,14.2-31.6,31.6v8.2C2461.2-124.4,2475.4-110.3,2492.8-110.3z"/>
					</g>
					<g>
						<path class="st3" d="M1922.3-358.9h-334.8v-334.8c0-27.2-22-49.2-49.2-49.2h-12.8c-27.2,0-49.2,22-49.2,49.2v334.8h-334.8
							c-27.2,0-49.2,22-49.2,49.2v12.7c0,27.2,22,49.2,49.2,49.2h334.8V87c0,27.2,22,49.2,49.2,49.2h12.7c27.2,0,49.2-22,49.2-49.2
							v-334.8h334.8c27.2,0,49.2-22,49.2-49.2v-12.7C1971.6-336.9,1949.5-358.9,1922.3-358.9z"/>
					</g>
				</g>
			</g>
		</g>
	</g>
</g>
<g class="st4">
	<path class="st5" d="M5792.4,3630.2c0-0.8,0-1.4,0-2.2C5792.4,1674.8,4209.2,91.5,2256,91.5S-1280.4,1674.8-1280.4,3628
		c0,0.8,0,1.4,0,2.2H5792.4z"/>
</g>
</svg>
